<?xml version="1.0" encoding="utf-8"?>
<!-- Generator: Adobe Illustrator 16.0.0, SVG Export Plug-In . SVG Version: 6.00 Build 0)  -->
<!DOCTYPE svg PUBLIC "-//W3C//DTD SVG 1.1//EN" "http://www.w3.org/Graphics/SVG/1.1/DTD/svg11.dtd">
<svg version="1.1" id="Layer_1" xmlns="http://www.w3.org/2000/svg" xmlns:xlink="http://www.w3.org/1999/xlink" x="0px" y="0px"
	 width="854.5px" height="281px" viewBox="9.5 0 854.5 281" enable-background="new 9.5 0 854.5 281" xml:space="preserve">
<g id="g1" transform="translate(-88.247957,-1761.1929)">
	<g id="g2" transform="scale(2.5964,2.5964)">
		<path id="path1" fill="#A54D9D" d="M62.777,682.666l-22.843,99.665c0.007,0,60.091,0,60.104,0c26.425,0,105.679,0,105.679,0
			c0,0,54.964,0,54.964,0c-6.548-0.571-11.718-2.87-14.798-7.06c-0.571-0.775-1.044-1.61-1.457-2.484
			c-0.263-0.644-0.51-1.293-0.76-1.95c-0.657-2.088-0.918-4.406-0.8-6.876c0.328-6.883,3.558-15.07,9.154-23.644
			c5.943-9.111,14.558-18.661,25.224-27.523c2.391-1.985,4.862-3.945,7.45-5.849c3.199-2.353,6.422-4.52,9.646-6.547
			c11.881-7.48,23.733-12.714,34.235-15.373c-10.036,3.274-21.31,8.832-32.449,16.399c-0.401,0.27-0.796,0.548-1.19,0.821
			c-6.18,4.282-11.779,8.83-16.666,13.423c-15.723,14.784-24.034,30.103-20.257,39.078c0.269,0.617,0.59,1.207,0.964,1.765
			c4.059,5.97,14.118,7.002,26.866,3.797c0.867-0.217,1.734-0.462,2.627-0.718c4.072-1.175,8.395-2.763,12.848-4.721
			c1.07-0.473,2.153-0.959,3.243-1.477c0.112-0.053,0.217-0.105,0.328-0.164c14.055-6.983,24.857-15.019,27.195-19.847
			c0.512-1.05,0.635-1.946,0.287-2.648c-1.669-3.382-13.341-1.098-27.482,5.028c-1.136,0.493-2.285,0.999-3.448,1.539
			c0.946-0.878,1.93-1.759,2.935-2.627c1.603-1.381,3.262-2.731,5.028-4.064c2.765-2.094,5.561-3.987,8.312-5.665
			c12.886-9.722,19.4-18.918,18.041-22.33c-0.256-0.643-0.801-1.085-1.642-1.355c-2.686-0.854-7.589,0.166-13.546,2.607
			c-4.913,2.015-10.555,5.003-16.276,8.723l-0.78,0.513l-0.144,0.082l-2.75,1.827l1.58-2.894c2.345-4.292,6.164-8.77,10.919-12.93
			c3.487-3.042,7.472-5.907,11.761-8.415c1.622-0.95,3.242-1.832,4.864-2.627c1.662-0.812,3.324-1.533,4.946-2.176
			c4.713-1.864,9.891-4.218,13.814-4.526c-0.357,0-11.7,1.221-11.7,1.221h-37.149H135.853H62.777L62.777,682.666z M240.711,682.81
			c-0.644,9.823,1.261,24.212,5.582,40.186c0.768,2.842,1.605,5.735,2.525,8.661c0.571,1.807,1.161,3.585,1.765,5.336
			c-0.355,0.521-0.712,1.04-1.047,1.56c-5.392,8.263-8.544,16.073-9.339,22.864c-2.279-7.632-3.994-15.991-4.967-24.855
			c-0.276-2.54-0.492-5.051-0.636-7.532C233.531,711.007,235.884,694.668,240.711,682.81L240.711,682.81z M133.103,695.597
			c0.123-0.003,0.244,0,0.369,0h24.28c2.075,0,3.68,0.389,4.823,1.17c1.136,0.786,1.562,1.802,1.293,3.038l-2.894,13.074h-8.559
			l2.811-12.725h-21.427l-7.738,34.973l-2.791,12.664h21.407l0.021-0.082l4.289-19.375h-10.057l0.965-4.371c0,0,18.616,0,18.616,0
			c0,0-5.336,24.177-5.336,24.177c-0.072,0.345-0.199,0.656-0.369,0.965c-0.44,0.802-1.208,1.488-2.278,2.052
			c-1.484,0.782-3.261,1.17-5.336,1.17h-24.259c-2.075,0-3.68-0.388-4.823-1.17c-1.136-0.782-1.569-1.78-1.293-3.017l10.693-48.334
			c0.276-1.236,1.136-2.252,2.627-3.038c0.053-0.028,0.112-0.035,0.164-0.062C129.661,696.023,131.258,695.64,133.103,695.597
			L133.103,695.597z M171.155,695.597h30.561c2.049,0,3.66,0.389,4.803,1.17c1.149,0.786,1.589,1.802,1.313,3.038l-5.706,25.778
			c-0.269,1.228-1.15,2.23-2.648,3.017c-1.497,0.789-3.26,1.19-5.316,1.19h-22.207l-4.289,19.354l-0.698,3.181h-8.374l0.636-2.874
			L171.155,695.597L171.155,695.597z M213.373,695.597h8.374l-9.482,42.834l-2.073,9.359h20.032c0.21,1.536,0.455,3.045,0.718,4.536
			h-30.13l2.381-10.754L213.373,695.597L213.373,695.597z M178.523,700.153l-5.562,25.08h20.873l5.541-25.08H178.523z
			 M134.014,759.347c0.082-0.003,0.164,0,0.246,0c0.972,0,1.821,0.17,2.504,0.492c0.729,0.341,1.25,0.849,1.539,1.519
			c0.282,0.65,0.356,1.388,0.205,2.196l-0.061,0.308h-2.401l0.02-0.287c0.062-0.564-0.008-1.008-0.226-1.313
			c-0.028-0.038-0.07-0.089-0.103-0.123c-0.054-0.055-0.135-0.118-0.205-0.164c-0.336-0.211-0.862-0.328-1.539-0.328
			c-0.9,0-1.572,0.157-2.032,0.472c-0.447,0.308-0.729,0.654-0.821,1.067c-0.092,0.42,0.059,0.641,0.164,0.759
			c0.003,0.003,0.017,0.017,0.021,0.021c0.133,0.113,0.595,0.379,2.032,0.718c1.3,0.316,2.162,0.598,2.648,0.841
			c0.736,0.375,1.249,0.86,1.519,1.457c0.269,0.591,0.328,1.283,0.164,2.032c-0.164,0.729-0.536,1.401-1.088,2.032
			c-0.545,0.63-1.239,1.129-2.073,1.478c-0.827,0.341-1.735,0.533-2.668,0.533c-1.182,0-2.131-0.179-2.873-0.533
			c-0.775-0.368-1.334-0.948-1.662-1.704c-0.315-0.735-0.383-1.57-0.205-2.483l0.062-0.287h2.36l-0.02,0.287
			c-0.059,0.545-0.001,0.985,0.144,1.313c0.138,0.315,0.401,0.576,0.821,0.78c0.447,0.217,1.005,0.328,1.642,0.328
			c0.572,0,1.094-0.096,1.56-0.267c0.46-0.164,0.825-0.381,1.088-0.657c0.256-0.276,0.406-0.568,0.472-0.883
			c0.066-0.282,0.05-0.521-0.062-0.718c-0.125-0.21-0.372-0.396-0.759-0.554l-2.012-0.595c-1.123-0.283-1.879-0.552-2.319-0.821
			c-0.598-0.354-1.029-0.809-1.252-1.354c-0.223-0.539-0.247-1.136-0.103-1.786c0.151-0.696,0.487-1.359,1.006-1.95
			c0.525-0.598,1.204-1.067,2.011-1.375C132.47,759.531,133.222,759.374,134.014,759.347L134.014,759.347z M155.564,759.388
			c0.13-0.01,0.252,0,0.39,0l1.477,0.164l0.493,0.041l-0.718,1.826l-0.144,0.287l-1.129-0.102c-0.333,0-0.578,0.051-0.739,0.164
			c-0.011,0.008-0.031,0.032-0.041,0.041c-0.021,0.019-0.058,0.052-0.082,0.082c-0.099,0.129-0.219,0.361-0.308,0.78
			c0,0-0.043,0.177-0.082,0.328c0.519,0,1.765,0,1.765,0l-0.451,2.032c0,0-1.291,0-1.724,0c-0.131,0.591-1.744,7.82-1.744,7.82
			h-2.381c0,0,1.548-6.946,1.745-7.82c-0.401,0-1.375,0-1.375,0l0.452-2.032c0,0,0.98,0,1.355,0
			c0.065-0.282,0.164-0.636,0.164-0.636c0.145-0.657,0.296-1.129,0.493-1.458c0.269-0.453,0.65-0.832,1.129-1.108
			C154.502,759.569,155.001,759.432,155.564,759.388L155.564,759.388z M161.249,759.491c0,0-0.622,2.8-0.78,3.509
			c0.46,0,1.539,0,1.539,0l-0.451,2.032c0,0-1.132,0-1.539,0c-0.125,0.565-1.108,4.946-1.108,4.946s-0.082,0.526-0.082,0.677
			c0,0.005,0,0.017,0,0.021c0,0.002,0,0.019,0,0.021c0.001,0.001,0.02-0.001,0.02,0l0.246,0.02l1.129-0.082l-0.123,1.827
			l0.021,0.328l-1.621,0.185c-0.644,0-1.116-0.105-1.457-0.328c-0.361-0.237-0.571-0.55-0.657-0.944
			c-0.013-0.073-0.041-0.177-0.041-0.328c0-0.296,0.056-0.796,0.246-1.662c0,0,0.863-3.865,1.047-4.68c-0.309,0-1.129,0-1.129,0
			L156.96,763c0,0,0.8,0,1.129,0c0.105-0.473,0.472-2.094,0.472-2.094l1.909-1.006L161.249,759.491L161.249,759.491z
			 M85.618,759.573h9.236l-0.513,2.299c0,0-6.161,0-6.753,0c-0.105,0.466-0.526,2.354-0.677,3.038c0.854,0,5.849,0,5.849,0
			l-0.513,2.299c0,0-5.258,0-5.849,0c-0.125,0.571-1.252,5.644-1.252,5.644h-2.483L85.618,759.573L85.618,759.573z M97.994,762.816
			c0.093-0.012,0.194,0,0.287,0c0.591,0,1.137,0.18,1.662,0.554l0.328,0.226L99,765.689l-0.349-0.246
			c-0.256-0.164-0.532-0.246-0.821-0.246c-0.25,0-0.482,0.089-0.718,0.246c-0.25,0.164-0.458,0.382-0.616,0.677
			c-0.276,0.505-0.478,1.072-0.616,1.683l-1.108,5.049h-2.381L94.587,763h2.216c0,0-0.076,0.299-0.103,0.411
			c0.105-0.079,0.216-0.187,0.308-0.246C97.327,762.975,97.663,762.857,97.994,762.816L97.994,762.816z M105.054,762.816
			c0.143-0.011,0.284,0,0.431,0c1.34,0,2.354,0.469,3.017,1.395c0.414,0.598,0.636,1.337,0.636,2.217c0,0.486-0.06,1.009-0.185,1.58
			l-0.185,0.718c0,0-6.021,0-6.691,0c-0.013,0.138-0.02,0.286-0.02,0.41c0,0.512,0.105,0.916,0.328,1.211
			c0.106,0.144,0.229,0.275,0.369,0.369c0.265,0.173,0.606,0.267,1.006,0.267c0.486,0,0.913-0.134,1.314-0.39
			c0.381-0.243,0.745-0.632,1.067-1.17h2.545l-0.226,0.493c-0.486,0.985-1.164,1.753-2.011,2.299
			c-0.847,0.545-1.86,0.841-2.976,0.841c-1.451,0-2.532-0.469-3.202-1.395c-0.663-0.906-0.806-2.159-0.452-3.735
			c0.355-1.603,1.062-2.883,2.093-3.777C102.838,763.349,103.887,762.904,105.054,762.816L105.054,762.816z M115.747,762.816
			c0.143-0.011,0.284,0,0.431,0c1.34,0,2.354,0.469,3.017,1.395c0.414,0.598,0.636,1.337,0.636,2.217
			c0,0.479-0.06,0.995-0.185,1.559l-0.185,0.739c0,0-6.021,0-6.691,0c-0.007,0.092-0.014,0.175-0.021,0.267
			c-0.005,0.035,0.002,0.087,0,0.123c0,0.006,0,0.015,0,0.02c0,0.099,0.014,0.196,0.021,0.287c0.033,0.375,0.131,0.687,0.308,0.924
			c0.034,0.046,0.065,0.103,0.102,0.144c0.301,0.322,0.727,0.493,1.273,0.493c0.486,0,0.919-0.134,1.313-0.39
			c0.381-0.243,0.746-0.631,1.067-1.17h2.565l-0.246,0.493c-0.486,0.985-1.164,1.753-2.011,2.299
			c-0.847,0.545-1.86,0.841-2.976,0.841c-1.451,0-2.532-0.469-3.202-1.395c-0.433-0.591-0.636-1.344-0.636-2.237
			c0-0.138,0.007-0.287,0.02-0.431c0.026-0.341,0.079-0.686,0.164-1.067c0.354-1.596,1.042-2.883,2.073-3.777
			C113.511,763.349,114.58,762.904,115.747,762.816L115.747,762.816z M144.871,762.816c0.147-0.011,0.282,0,0.431,0
			c1.366,0,2.416,0.462,3.099,1.375c0.677,0.912,0.841,2.144,0.493,3.694c-0.269,1.208-0.658,2.185-1.191,2.894
			c-0.532,0.709-1.21,1.289-2.011,1.683c-0.795,0.394-1.636,0.595-2.483,0.595c-1.392,0-2.429-0.476-3.099-1.395
			c-0.433-0.584-0.657-1.337-0.657-2.237c0-0.486,0.053-1.002,0.185-1.581c0.394-1.76,1.199-3.101,2.381-3.961
			C142.886,763.257,143.844,762.895,144.871,762.816L144.871,762.816z M180.932,762.816c0.173-0.011,0.333,0,0.513,0
			c0.827,0,1.478,0.083,1.97,0.287c0.525,0.21,0.898,0.507,1.108,0.862c0.203,0.335,0.308,0.747,0.308,1.252l-0.246,1.498
			l-0.452,2.032c-0.387,1.734-0.473,2.384-0.492,2.627c-0.02,0.328,0.011,0.648,0.103,0.944l0.164,0.534h-2.422l-0.103-0.308
			c-0.039-0.144-0.028-0.328-0.041-0.492c-0.46,0.282-0.92,0.533-1.334,0.677c-0.611,0.21-1.245,0.328-1.888,0.328
			c-1.116,0-1.943-0.29-2.443-0.862c-0.381-0.42-0.554-0.934-0.554-1.519c0-0.223,0.03-0.455,0.082-0.698
			c0.112-0.5,0.314-0.961,0.636-1.375c0.315-0.407,0.688-0.742,1.108-0.985c0.407-0.243,0.861-0.415,1.334-0.533l1.457-0.246
			c1.123-0.131,1.961-0.294,2.566-0.472c0.013-0.065,0.041-0.144,0.041-0.144c0.095-0.423,0.084-0.74-0.02-0.903
			c-0.008-0.01-0.033-0.032-0.041-0.041c-0.022-0.024-0.056-0.061-0.082-0.082c-0.247-0.196-0.668-0.287-1.231-0.287
			c-0.637,0-1.108,0.104-1.437,0.308c-0.322,0.203-0.62,0.576-0.882,1.108h-2.484l0.226-0.493c0.296-0.683,0.648-1.249,1.088-1.683
			c0.44-0.433,1.034-0.769,1.724-1.006C179.737,762.97,180.314,762.854,180.932,762.816L180.932,762.816z M191.338,762.816
			c0.093-0.012,0.194,0,0.287,0c0.598,0,1.158,0.18,1.683,0.554l0.308,0.226l-1.273,2.094l-0.349-0.246
			c-0.256-0.164-0.518-0.246-0.8-0.246c-0.25,0-0.496,0.089-0.739,0.246c-0.25,0.164-0.431,0.382-0.595,0.677
			c-0.269,0.505-0.478,1.072-0.616,1.683l-1.129,5.049h-2.381l2.196-9.852h2.217c0,0-0.056,0.299-0.082,0.411
			c0.105-0.079,0.209-0.187,0.308-0.246C190.686,762.975,191.007,762.857,191.338,762.816L191.338,762.816z M198.377,762.816
			c0.143-0.011,0.285,0,0.431,0c1.34,0,2.361,0.469,3.017,1.395c0.42,0.598,0.636,1.337,0.636,2.217c0,0.486-0.08,1.009-0.205,1.58
			l-0.164,0.718c0,0-6.027,0-6.691,0c-0.013,0.138-0.041,0.286-0.041,0.41c0,0.512,0.112,0.916,0.328,1.211
			c0.034,0.046,0.086,0.103,0.123,0.144c0.022,0.023,0.059,0.061,0.082,0.082c0.293,0.267,0.693,0.411,1.19,0.411
			c0.486,0,0.913-0.134,1.313-0.39c0.381-0.243,0.739-0.632,1.067-1.17h2.566l-0.246,0.493c-0.486,0.985-1.171,1.753-2.012,2.299
			c-0.854,0.545-1.853,0.841-2.976,0.841c-1.451,0-2.511-0.469-3.181-1.395c-0.663-0.906-0.82-2.159-0.472-3.735
			c0.355-1.603,1.042-2.883,2.073-3.777C196.147,763.349,197.212,762.904,198.377,762.816z M162.44,763h2.443
			c0,0,0.301,5.846,0.308,5.931c0.099-0.209,0.175-0.385,0.185-0.41l2.689-5.521h2.237c0,0,0.205,5.775,0.205,5.808
			c0.066-0.118,3.058-5.808,3.058-5.808h2.422l-5.336,9.851h-2.196c0,0-0.213-5.342-0.226-5.644c-0.906,1.859-2.75,5.644-2.75,5.644
			h-2.258L162.44,763L162.44,763z M105.095,764.868c-0.566,0.024-1.08,0.228-1.56,0.616c-0.381,0.302-0.638,0.717-0.842,1.17
			c0,0,4.043,0,4.043,0c0.007-0.072,0.02-0.16,0.02-0.226c0-0.374-0.067-0.665-0.185-0.862c-0.289-0.473-0.717-0.698-1.354-0.698
			C105.18,764.868,105.133,764.866,105.095,764.868L105.095,764.868z M115.788,764.868c-0.566,0.024-1.079,0.228-1.56,0.616
			c-0.381,0.302-0.631,0.717-0.841,1.17c0,0,4.043,0,4.043,0c0.007-0.072,0.021-0.16,0.021-0.226c0-0.374-0.06-0.665-0.185-0.862
			c-0.057-0.096-0.135-0.191-0.205-0.267c-0.274-0.284-0.652-0.431-1.149-0.431C115.873,764.868,115.826,764.866,115.788,764.868
			L115.788,764.868z M198.501,764.868c-0.582,0.018-1.125,0.215-1.621,0.616c-0.374,0.302-0.632,0.717-0.841,1.17
			c0,0,4.023,0,4.023,0c0.007-0.072,0.021-0.16,0.021-0.226c0-0.374-0.06-0.665-0.185-0.862c-0.282-0.466-0.718-0.691-1.355-0.698
			C198.523,764.868,198.52,764.867,198.501,764.868L198.501,764.868z M144.727,764.909c-0.543,0.064-1.048,0.313-1.519,0.739
			c-0.565,0.512-0.975,1.316-1.211,2.381c-0.099,0.446-0.144,0.828-0.144,1.17c0,0.466,0.09,0.832,0.267,1.108
			c0.047,0.071,0.11,0.146,0.164,0.205c0.292,0.31,0.7,0.472,1.211,0.472c0.663,0,1.248-0.247,1.806-0.759
			c0.565-0.519,0.968-1.331,1.211-2.422c0.223-0.998,0.192-1.744-0.123-2.216c-0.302-0.46-0.744-0.677-1.355-0.677
			C144.932,764.909,144.828,764.897,144.727,764.909L144.727,764.909z M181.815,768.501c-0.558,0.151-1.184,0.278-2.011,0.39
			c-0.618,0.092-1.058,0.189-1.314,0.287c-0.223,0.092-0.403,0.219-0.554,0.39c-0.144,0.164-0.241,0.337-0.287,0.534
			c-0.013,0.079-0.021,0.16-0.021,0.226c0,0.005,0,0.015,0,0.021c0.001,0.015-0.002,0.046,0,0.062
			c0.004,0.029,0.012,0.074,0.021,0.102c0.003,0.009,0.017,0.032,0.02,0.041c0.007,0.018,0.012,0.045,0.021,0.062
			c0.009,0.017,0.03,0.046,0.041,0.061c0.017,0.024,0.041,0.06,0.062,0.082c0.164,0.184,0.492,0.267,0.964,0.267
			c0.519,0,1.018-0.099,1.478-0.328c0.453-0.223,0.818-0.557,1.088-0.944C181.519,769.477,181.677,769.053,181.815,768.501
			L181.815,768.501z M56.45,752.045l55.082-56.872h8.995l-13.3,56.872h-7.399l3.776-16.371H80.514l-15.692,16.371H56.45
			 M86.126,729.816h18.886l3.484-14.276c1.406-5.664,2.76-10.384,4.061-14.16c-2.6,3.259-6.04,7.125-10.32,11.599L86.126,729.816"/>
		<path id="path2" fill="none" stroke="#A54D9D" stroke-width="3.2839" d="M242.274,772.004c0.266,0.685,0.533,1.37,0.811,2.039
			c0.428,0.909,0.922,1.78,1.516,2.593c3.211,4.364,8.587,6.754,15.413,7.348h7.343c2.322-0.181,4.755-0.519,7.276-1.012
			c4.349-0.85,8.959-2.157,13.747-3.903c3.627-1.322,7.354-2.887,11.137-4.705c8.237-3.949,16.747-9.042,25.095-15.188
			c2.749-2.022,5.388-4.097,7.92-6.208c2.322-1.932,4.549-3.894,6.677-5.877c5.938-5.722,10.42-11.534,12.958-16.637
			c2.644-5.314,3.172-9.857,1.005-12.72c-1.327-1.757-3.549-2.698-6.41-2.92c12.886-9.669,20.396-21.399,17.702-28.794
			c-0.856-2.36-2.739-4.121-5.438-5.095c-1.2-0.432-2.549-0.705-4.021-0.829h-3.966c-5.538,0.399-13.591,2.382-20.423,5.731"/>
	</g>
</g>
</svg>
