<?xml version="1.0" encoding="utf-8"?>
<!-- Generator: Adobe Illustrator 16.0.0, SVG Export Plug-In . SVG Version: 6.00 Build 0)  -->
<!DOCTYPE svg PUBLIC "-//W3C//DTD SVG 1.1//EN" "http://www.w3.org/Graphics/SVG/1.1/DTD/svg11.dtd">
<svg version="1.1" xmlns="http://www.w3.org/2000/svg" xmlns:xlink="http://www.w3.org/1999/xlink" x="0px" y="0px"
	 width="599.965px" height="71.57px" viewBox="0 0 599.965 71.57" enable-background="new 0 0 599.965 71.57" xml:space="preserve">
<g id="ChrissMejia" enable-background="new    ">
	<path fill-rule="evenodd" clip-rule="evenodd" fill="#FFFFFF" d="M239.58,22.264c-2.27,0.424-13.974,9.276-11.736,17.875
		c2.889,6.689,12.023-3.615,16.22-4.688c9.487-2.677,10.484,3.301,10.551,6.596c-1.417,1.353-1.579-5.925-9.76-3.429
		c-13.631,7.662-16.089,9.401-19.78,2.901c-2.939-8.638,4.551-15.69,12.659-20.572C242.134,19.29,243.44,21.057,239.58,22.264z"/>
	<path fill-rule="evenodd" clip-rule="evenodd" fill="#FFFFFF" d="M218.213,29.387c-1.383,2.696-5.483,12.179-5.804,13.712
		c-0.383,1.874,1.53,1.505-0.526,2.642C206.503,47.146,216.504,24.415,218.213,29.387z"/>
	<path fill-rule="evenodd" clip-rule="evenodd" fill="#FFFFFF" d="M241.153,1.546c-3.047,2.227-12.797,10.495-13.941,12.025
		c-1.399,1.866,1.168,2.503-1.95,2.636C217.865,14.813,241.453-4.908,241.153,1.546z"/>
	<path fill-rule="evenodd" clip-rule="evenodd" fill="#FFFFFF" d="M217.069,1.063c-1.09,3.726-2.296,6.649-2.903,8.34
		c-0.44,2.377-2.03,2.176-1.848-0.523C212.768,5.389,215.181-3.774,217.069,1.063z"/>
	<path fill-rule="evenodd" clip-rule="evenodd" fill="#FFFFFF" d="M212.149,18.572c-2.415,10.352-16.275,45.865-22.156,50.64
		c-6.96,4.944-4.968-4.305-3.955-5.537c0.482,5.319,1.36,5.736,3.428,2.374c11.012-21.234,16.125-38.046,20.309-47.74
		C210.591,17.335,212.202,17.358,212.149,18.572z"/>
	<path fill-rule="evenodd" clip-rule="evenodd" fill="#FFFFFF" d="M178.915,30.178c-2.674,1.937-0.812-2.207-2.638-1.847
		c-0.442,0.596-1.696,2.024,0.529,4.221c0.045,0.029,0.063,1.907,0,1.848c-5.184,13.397,9.246,17.6,16.88,11.075
		c0.378-0.299,0.021-0.884-0.792-0.526c-11.142,4.73-18.132-3.116-13.716-10.548c1.254-0.092,20.045-3.44,20.045-15.827
		C194.848,14.106,184.009,22.469,178.915,30.178z M183.136,27.276c5.779-6.196,10.906-9.35,14.241-8.177
		c0.799,2.164-3.913,6.269-6.592,8.704c-5.911,4.119-8.97,3.958-8.97,3.958S178.938,32.352,183.136,27.276z"/>
	<path fill-rule="evenodd" clip-rule="evenodd" fill="#FFFFFF" d="M183.397,0.111c0.838-1.03,2.559-0.198,1.847,1.317
		c-2.903,3.601-14.814,13.312-22.683,30.596c-8.862,24.468,9.271,5.15,9.497,8.174c-6.496,8.842-16.188,8.998-14.245-1.055
		c1.717-7.025,6.708-15.668,6.068-16.086c-1.42-0.957-4.26,4.615-8.177,6.857c-4.953,2.87-2.83-1.023-5.275,0
		c-5.798,6.301-17.979,19.459-18.463,20.047c-0.682,1.071,0.39,1.354-0.526,2.369c-1.408,1.024-4.634-0.287-2.901-2.107
		c2.849-4.275,26.788-29.586,28.22-31.124c2.342-1.138,3.641,1.442,2.901,2.111c-0.901,1.165-3.594,3.595-2.635,4.219
		c1.883-0.625,12.394-12.559,13.978-13.186C171.858,11.549,180.884,2.478,183.397,0.111z"/>
	<path fill-rule="evenodd" clip-rule="evenodd" fill="#FFFFFF" d="M126.691,24.112c0.901,1.016-6.741,4.65-3.428,7.649
		c4.227,3.588,5.815,0.901,9.494,5.009c1.297,3.434-4.618,3.258-12.924,8.177c-7.151,4.378-13.45,10.138-13.979,9.497
		c-3.323-2.322,13.653-11.759,22.154-16.093c2.506-1.431-0.943-2.316-2.108-2.635c-3.311-0.847-5.074-2.845-5.804-4.22
		C118.711,27.906,125.561,22.3,126.691,24.112z"/>
	<path fill-rule="evenodd" clip-rule="evenodd" fill="#FFFFFF" d="M109.812,24.112c0.902,1.016-6.742,4.65-3.429,7.649
		c4.227,3.588,5.814,0.901,9.495,5.009c1.298,3.434-4.618,3.258-12.924,8.177c-7.15,4.378-13.45,10.138-13.979,9.497
		c-3.323-2.322,13.654-11.759,22.155-16.093c2.507-1.431-0.944-2.316-2.109-2.635c-3.311-0.847-5.074-2.845-5.803-4.22
		C101.829,27.906,108.68,22.3,109.812,24.112z"/>
	<path fill-rule="evenodd" clip-rule="evenodd" fill="#FFFFFF" d="M102.062,12.332c-0.697,3.006-1.584,5.396-2.009,6.767
		c-0.2,1.903-1.763,1.869-1.848-0.263C98.304,16.063,99.757,8.684,102.062,12.332z"/>
	<path fill-rule="evenodd" clip-rule="evenodd" fill="#FFFFFF" d="M96.097,29.387c-1.386,2.696-5.486,12.179-5.804,13.712
		c-0.385,1.874,1.527,1.505-0.527,2.642C84.385,47.146,94.388,24.415,96.097,29.387z"/>
	<path fill-rule="evenodd" clip-rule="evenodd" fill="#FFFFFF" d="M85.547,26.485c2.562,1.722,2.693,3.439,1.45,4.305
		c-1.997,1.394-0.773-1.309-1.979-0.876c-0.345-0.381-4.598,4.121-7.385,8.177c-2.898,4.492-3.737,8.708-5.539,8.703
		C64.901,47.309,83.684,25.949,85.547,26.485z"/>
	<path fill-rule="evenodd" clip-rule="evenodd" fill="#FFFFFF" d="M68.666,8.551c0.988,0.527-20.046,35.802-18.99,36.923
		c1.055,1.121,17.846-18.549,22.419-18.461c3.734,1.311-6.989,21.169-8.705,20.31c-3.296-0.921,10.33-18.436,6.331-17.408
		c-5.478,2.157-19.319,19.188-20.309,20.047c-0.989,0.854-6.249,4.279-2.16-6.205C48.108,40.854,66.16,7.824,68.666,8.551z"/>
	<path fill-rule="evenodd" clip-rule="evenodd" fill="#FFFFFF" d="M58.115,3.012c1.279,2.535-8.455,8.709-10.022,8.704
		c-4.052-2.077,1.715-2.901,0-4.222C45.258,8.021,2.896,34.398,5.892,46.001c5.691,11.075,37.993-6.523,37.454-3.162
		C26.286,52.7,10.864,57.337,4.091,49.966C-2.022,37.91,8.812,29.883,25.938,16.461C42.732,4.03,53.782-2.842,58.115,3.012z"/>
</g>
<g id="OpenSource">
	<text transform="matrix(1 0 0 1 270.2793 44.7451)" fill="#FFFFFF" font-family="'AvenirNext-UltraLight'" font-size="52.7508">| OpenSource</text>
</g>
</svg>
