<?xml version="1.0" encoding="utf-8"?>
<!-- Generator: Adobe Illustrator 16.0.0, SVG Export Plug-In . SVG Version: 6.00 Build 0)  -->
<!DOCTYPE svg PUBLIC "-//W3C//DTD SVG 1.1//EN" "http://www.w3.org/Graphics/SVG/1.1/DTD/svg11.dtd">
<svg version="1.1" id="Layer_1" xmlns="http://www.w3.org/2000/svg" xmlns:xlink="http://www.w3.org/1999/xlink" x="0px" y="0px"
	 width="599.965px" height="71.57px" viewBox="0 0 599.965 71.57" enable-background="new 0 0 599.965 71.57" xml:space="preserve">
<g id="ChrissMejia" enable-background="new    ">
	<path fill="#FFFFFF" d="M239.58,22.264c-2.27,0.424-13.974,9.275-11.736,17.875c2.889,6.688,12.023-3.615,16.22-4.688
		c9.487-2.677,10.484,3.301,10.551,6.596c-1.417,1.354-1.579-5.925-9.76-3.429c-13.631,7.662-16.089,9.401-19.78,2.901
		c-2.939-8.639,4.551-15.69,12.659-20.572C242.134,19.29,243.44,21.057,239.58,22.264z"/>
	<path fill="#FFFFFF" d="M218.213,29.387c-1.383,2.695-5.483,12.179-5.804,13.712c-0.383,1.874,1.53,1.505-0.526,2.642
		C206.503,47.146,216.504,24.415,218.213,29.387z"/>
	<path fill="#FFFFFF" d="M241.153,1.546c-3.047,2.228-12.797,10.495-13.941,12.025c-1.399,1.866,1.168,2.503-1.95,2.636
		C217.865,14.813,241.453-4.908,241.153,1.546z"/>
	<path fill="#FFFFFF" d="M217.069,1.063c-1.09,3.726-2.296,6.648-2.903,8.34c-0.44,2.377-2.03,2.176-1.848-0.523
		C212.768,5.389,215.181-3.774,217.069,1.063z"/>
	<path fill="#FFFFFF" d="M212.149,18.572c-2.415,10.352-16.275,45.865-22.156,50.64c-6.96,4.944-4.968-4.305-3.955-5.537
		c0.482,5.319,1.36,5.736,3.428,2.374c11.012-21.233,16.125-38.046,20.309-47.739C210.591,17.335,212.202,17.358,212.149,18.572z"/>
	<path fill="#FFFFFF" d="M178.915,30.178c-2.674,1.937-0.812-2.207-2.638-1.848c-0.442,0.596-1.696,2.024,0.529,4.221
		c0.045,0.029,0.063,1.907,0,1.849c-5.184,13.396,9.246,17.6,16.88,11.075c0.378-0.3,0.021-0.885-0.792-0.526
		c-11.142,4.73-18.132-3.116-13.716-10.548c1.254-0.092,20.045-3.44,20.045-15.827C194.848,14.106,184.009,22.469,178.915,30.178z
		 M183.136,27.276c5.779-6.196,10.906-9.351,14.241-8.177c0.799,2.164-3.913,6.269-6.592,8.704c-5.911,4.118-8.97,3.957-8.97,3.957
		S178.938,32.352,183.136,27.276z"/>
	<path fill="#FFFFFF" d="M183.397,0.111c0.838-1.03,2.559-0.198,1.847,1.317c-2.903,3.601-14.814,13.312-22.683,30.596
		c-8.862,24.468,9.271,5.149,9.497,8.174c-6.496,8.842-16.188,8.998-14.245-1.055c1.717-7.025,6.708-15.668,6.068-16.086
		c-1.42-0.957-4.26,4.614-8.177,6.856c-4.953,2.87-2.83-1.022-5.275,0c-5.798,6.301-17.979,19.459-18.463,20.047
		c-0.682,1.071,0.39,1.354-0.526,2.369c-1.408,1.024-4.634-0.287-2.901-2.106c2.849-4.275,26.788-29.586,28.22-31.124
		c2.342-1.139,3.641,1.441,2.901,2.11c-0.901,1.165-3.594,3.596-2.635,4.22c1.883-0.625,12.394-12.56,13.978-13.187
		C171.858,11.549,180.884,2.478,183.397,0.111z"/>
	<path fill="#FFFFFF" d="M126.691,24.112c0.901,1.016-6.741,4.65-3.428,7.648c4.227,3.589,5.815,0.901,9.494,5.01
		c1.297,3.434-4.618,3.258-12.924,8.177c-7.151,4.378-13.45,10.138-13.979,9.497c-3.323-2.322,13.653-11.759,22.154-16.093
		c2.506-1.432-0.943-2.316-2.108-2.636c-3.311-0.847-5.074-2.845-5.804-4.22C118.711,27.906,125.561,22.3,126.691,24.112z"/>
	<path fill="#FFFFFF" d="M109.812,24.112c0.902,1.016-6.742,4.65-3.429,7.648c4.227,3.589,5.814,0.901,9.495,5.01
		c1.298,3.434-4.618,3.258-12.924,8.177c-7.15,4.378-13.45,10.138-13.979,9.497c-3.323-2.322,13.654-11.759,22.155-16.093
		c2.507-1.432-0.944-2.316-2.109-2.636c-3.311-0.847-5.074-2.845-5.803-4.22C101.829,27.906,108.68,22.3,109.812,24.112z"/>
	<path fill="#FFFFFF" d="M102.062,12.332c-0.697,3.006-1.584,5.396-2.009,6.768c-0.2,1.902-1.763,1.868-1.848-0.264
		C98.304,16.063,99.757,8.684,102.062,12.332z"/>
	<path fill="#FFFFFF" d="M96.097,29.387c-1.386,2.695-5.486,12.179-5.804,13.712c-0.385,1.874,1.527,1.505-0.527,2.642
		C84.385,47.146,94.388,24.415,96.097,29.387z"/>
	<path fill="#FFFFFF" d="M85.547,26.485c2.562,1.722,2.693,3.438,1.45,4.305c-1.997,1.395-0.773-1.309-1.979-0.876
		c-0.345-0.381-4.598,4.121-7.385,8.177c-2.898,4.492-3.737,8.708-5.539,8.703C64.901,47.309,83.684,25.949,85.547,26.485z"/>
	<path fill="#FFFFFF" d="M68.666,8.551c0.988,0.527-20.046,35.803-18.99,36.924c1.055,1.121,17.846-18.55,22.419-18.461
		c3.734,1.311-6.989,21.169-8.705,20.31c-3.296-0.921,10.33-18.436,6.331-17.408c-5.478,2.157-19.319,19.188-20.309,20.047
		c-0.989,0.854-6.249,4.279-2.16-6.205C48.108,40.854,66.16,7.824,68.666,8.551z"/>
	<path fill="#FFFFFF" d="M58.115,3.012c1.279,2.534-8.455,8.709-10.022,8.703c-4.052-2.076,1.715-2.9,0-4.222
		C45.258,8.021,2.896,34.398,5.892,46.001c5.691,11.075,37.993-6.522,37.454-3.162C26.286,52.7,10.864,57.337,4.091,49.966
		C-2.022,37.91,8.812,29.883,25.938,16.461C42.732,4.03,53.782-2.842,58.115,3.012z"/>
</g>
<g id="OpenSource">
	<g enable-background="new    ">
		<path fill="#FFFFFF" d="M276.715,5.182v52.75h-1.161V5.182H276.715z"/>
		<path fill="#FFFFFF" d="M337.377,26.071c0,2.884-0.483,5.531-1.45,7.939c-0.968,2.409-2.304,4.483-4.009,6.225
			c-1.706,1.74-3.737,3.104-6.093,4.088c-2.356,0.984-4.906,1.477-7.649,1.477s-5.293-0.492-7.648-1.477
			c-2.356-0.984-4.388-2.348-6.093-4.088c-1.706-1.741-3.042-3.815-4.009-6.225c-0.968-2.409-1.451-5.056-1.451-7.939
			c0-2.883,0.483-5.53,1.451-7.939c0.967-2.408,2.303-4.484,4.009-6.225c1.705-1.741,3.728-3.103,6.066-4.088
			c2.338-0.984,4.896-1.477,7.675-1.477s5.336,0.493,7.676,1.477c2.338,0.985,4.36,2.348,6.066,4.088
			c1.705,1.741,3.041,3.816,4.009,6.225C336.894,20.541,337.377,23.188,337.377,26.071z M336.217,26.071
			c0-2.602-0.44-5.038-1.318-7.306c-0.88-2.268-2.119-4.246-3.72-5.934s-3.508-3.015-5.723-3.983
			c-2.216-0.967-4.643-1.451-7.28-1.451s-5.063,0.484-7.279,1.451c-2.216,0.968-4.124,2.295-5.724,3.983
			c-1.601,1.688-2.84,3.666-3.719,5.934c-0.88,2.269-1.318,4.704-1.318,7.306c0,2.603,0.43,5.038,1.292,7.306
			c0.861,2.268,2.084,4.247,3.666,5.934c1.583,1.688,3.481,3.017,5.697,3.983s4.677,1.45,7.385,1.45s5.17-0.483,7.386-1.45
			c2.215-0.967,4.114-2.295,5.697-3.983c1.582-1.688,2.804-3.666,3.666-5.934C335.786,31.109,336.217,28.674,336.217,26.071z"/>
		<path fill="#FFFFFF" d="M347.927,27.073c1.053-2.427,2.553-4.255,4.5-5.486c1.946-1.23,4.079-1.846,6.395-1.846
			c1.789,0,3.429,0.326,4.921,0.976c1.491,0.651,2.771,1.548,3.842,2.69c1.07,1.144,1.895,2.506,2.474,4.088
			c0.578,1.583,0.868,3.306,0.868,5.169c0,1.829-0.298,3.526-0.895,5.091c-0.597,1.565-1.43,2.919-2.5,4.062
			c-1.07,1.144-2.351,2.04-3.842,2.69c-1.492,0.65-3.114,0.976-4.868,0.976c-1.158,0-2.289-0.158-3.395-0.475
			s-2.132-0.782-3.079-1.397s-1.807-1.372-2.578-2.269c-0.772-0.896-1.387-1.942-1.843-3.139h-0.158v19.201h-1.213V20.48h1.206
			v6.594H347.927z M369.766,32.665c0-1.583-0.255-3.094-0.763-4.537c-0.51-1.441-1.237-2.708-2.185-3.798
			c-0.947-1.09-2.096-1.96-3.447-2.611c-1.351-0.65-2.868-0.976-4.551-0.976c-1.614,0-3.097,0.316-4.447,0.949
			c-1.351,0.633-2.517,1.486-3.5,2.559c-0.982,1.073-1.754,2.33-2.315,3.771c-0.562,1.442-0.842,2.972-0.842,4.589
			c0,1.618,0.28,3.147,0.842,4.59s1.333,2.699,2.315,3.771c0.983,1.073,2.149,1.925,3.5,2.559c1.351,0.633,2.833,0.949,4.447,0.949
			c1.683,0,3.2-0.316,4.551-0.949c1.352-0.634,2.5-1.485,3.447-2.559c0.947-1.072,1.675-2.329,2.185-3.771
			C369.511,35.76,369.766,34.248,369.766,32.665z"/>
		<path fill="#FFFFFF" d="M378.628,32.348c0,1.478,0.22,2.937,0.66,4.378c0.438,1.442,1.107,2.735,2.004,3.878
			c0.897,1.143,2.031,2.066,3.402,2.77c1.372,0.703,2.989,1.055,4.854,1.055c1.899,0,3.587-0.378,5.064-1.134
			c1.477-0.756,2.76-1.854,3.851-3.298l0.844,0.739c-1.196,1.548-2.594,2.726-4.193,3.534c-1.601,0.809-3.455,1.213-5.565,1.213
			c-1.794,0-3.429-0.325-4.906-0.976c-1.477-0.65-2.752-1.557-3.824-2.717c-1.073-1.16-1.898-2.549-2.479-4.167
			c-0.58-1.617-0.87-3.376-0.87-5.275c0-1.828,0.299-3.516,0.898-5.064c0.6-1.547,1.419-2.883,2.459-4.009
			c1.04-1.125,2.265-1.995,3.675-2.611c1.409-0.615,2.926-0.923,4.547-0.923c1.903,0,3.56,0.334,4.97,1.002
			c1.409,0.668,2.582,1.548,3.517,2.637c0.934,1.091,1.63,2.33,2.088,3.719c0.459,1.39,0.688,2.805,0.688,4.246v1.002H378.628z
			 M399.148,31.346c-0.035-1.583-0.309-3.024-0.817-4.325c-0.511-1.301-1.205-2.417-2.084-3.35c-0.88-0.932-1.935-1.653-3.165-2.163
			c-1.231-0.509-2.603-0.765-4.114-0.765c-1.829,0-3.395,0.378-4.695,1.134c-1.301,0.757-2.365,1.688-3.191,2.796
			s-1.434,2.269-1.819,3.481c-0.388,1.213-0.581,2.277-0.581,3.191H399.148z"/>
		<path fill="#FFFFFF" d="M411.809,23.856c0.667-0.879,1.424-1.626,2.268-2.242c0.845-0.615,1.759-1.081,2.743-1.398
			c0.984-0.316,2.005-0.475,3.06-0.475c1.688,0,3.095,0.299,4.221,0.897c1.125,0.598,2.021,1.39,2.689,2.374
			c0.668,0.985,1.143,2.093,1.425,3.323c0.281,1.231,0.422,2.479,0.422,3.746v14.665h-1.16V30.186c0-0.984-0.105-2.039-0.316-3.165
			c-0.212-1.125-0.607-2.145-1.188-3.06c-0.58-0.914-1.363-1.679-2.348-2.295c-0.984-0.615-2.233-0.923-3.745-0.923
			c-1.337,0-2.594,0.272-3.771,0.817c-1.179,0.546-2.198,1.328-3.06,2.348c-0.862,1.02-1.548,2.26-2.058,3.719
			c-0.51,1.46-0.765,3.122-0.765,4.985v12.133h-1.16V26.598c0-0.386-0.01-0.861-0.026-1.424c-0.019-0.562-0.036-1.134-0.053-1.715
			c-0.019-0.58-0.045-1.134-0.079-1.662c-0.036-0.527-0.071-0.967-0.105-1.318h1.16c0.035,0.352,0.062,0.791,0.079,1.318
			c0.018,0.528,0.035,1.1,0.053,1.714c0.018,0.616,0.035,1.213,0.053,1.794c0.018,0.58,0.026,1.099,0.026,1.556h0.105
			C410.63,25.737,411.14,24.735,411.809,23.856z"/>
		<path fill="#FFFFFF" d="M459.969,35.777c0,1.583-0.308,2.999-0.923,4.246c-0.615,1.249-1.434,2.305-2.453,3.166
			c-1.021,0.861-2.225,1.512-3.613,1.951c-1.39,0.439-2.84,0.659-4.352,0.659c-2.321,0-4.44-0.413-6.356-1.239
			c-1.917-0.826-3.508-1.942-4.774-3.35l0.896-0.791c1.337,1.442,2.893,2.523,4.669,3.244c1.775,0.721,3.613,1.081,5.513,1.081
			c1.371,0,2.672-0.202,3.903-0.606c1.23-0.404,2.321-0.984,3.271-1.741c0.949-0.756,1.696-1.688,2.242-2.796
			c0.545-1.107,0.817-2.382,0.817-3.824c0-1.441-0.299-2.655-0.896-3.64c-0.599-0.984-1.372-1.828-2.321-2.532
			c-0.949-0.703-2.031-1.292-3.244-1.767c-1.213-0.475-2.436-0.905-3.666-1.292c-1.548-0.492-2.963-1.01-4.247-1.556
			c-1.284-0.544-2.392-1.213-3.323-2.004c-0.932-0.791-1.653-1.741-2.162-2.849c-0.511-1.107-0.766-2.453-0.766-4.035
			c0-1.547,0.308-2.928,0.924-4.141c0.614-1.213,1.45-2.233,2.506-3.06c1.055-0.826,2.276-1.459,3.666-1.899
			c1.389-0.439,2.856-0.659,4.404-0.659c1.899,0,3.701,0.361,5.407,1.081c1.705,0.721,3.104,1.75,4.193,3.086l-0.896,0.792
			c-0.985-1.231-2.242-2.189-3.771-2.875c-1.53-0.686-3.191-1.029-4.985-1.029c-1.266,0-2.506,0.176-3.719,0.528
			s-2.312,0.888-3.297,1.609c-0.985,0.721-1.776,1.627-2.374,2.716c-0.599,1.091-0.896,2.374-0.896,3.851
			c0,1.442,0.264,2.664,0.791,3.666s1.23,1.855,2.11,2.559c0.878,0.704,1.872,1.284,2.98,1.741c1.107,0.458,2.241,0.879,3.402,1.266
			c1.582,0.527,3.06,1.064,4.431,1.609c1.372,0.545,2.576,1.205,3.613,1.978c1.037,0.774,1.847,1.714,2.427,2.822
			C459.679,32.849,459.969,34.195,459.969,35.777z"/>
		<path fill="#FFFFFF" d="M492.41,32.559c0,1.899-0.309,3.64-0.923,5.223c-0.616,1.582-1.486,2.945-2.611,4.088
			c-1.126,1.144-2.471,2.031-4.035,2.664c-1.565,0.633-3.28,0.949-5.144,0.949c-1.864,0-3.569-0.316-5.117-0.949
			s-2.884-1.521-4.009-2.664c-1.126-1.143-1.996-2.506-2.611-4.088c-0.615-1.583-0.923-3.323-0.923-5.223
			c0-1.899,0.308-3.631,0.923-5.196c0.615-1.564,1.485-2.91,2.611-4.036c1.125-1.125,2.461-2.004,4.009-2.637
			c1.548-0.633,3.253-0.95,5.117-0.95c1.863,0,3.578,0.316,5.144,0.95c1.564,0.633,2.909,1.512,4.035,2.637
			c1.125,1.126,1.995,2.471,2.611,4.036C492.102,28.928,492.41,30.66,492.41,32.559z M491.25,32.559
			c0-1.617-0.264-3.147-0.791-4.589c-0.528-1.441-1.293-2.698-2.295-3.771c-1.003-1.072-2.216-1.917-3.64-2.532
			c-1.425-0.615-3.033-0.923-4.827-0.923c-1.793,0-3.395,0.308-4.8,0.923c-1.407,0.616-2.611,1.46-3.614,2.532
			c-1.002,1.073-1.767,2.33-2.294,3.771c-0.528,1.442-0.792,2.972-0.792,4.589c0,1.653,0.264,3.2,0.792,4.643
			c0.527,1.442,1.292,2.699,2.294,3.771c1.003,1.073,2.207,1.925,3.614,2.559c1.405,0.633,3.007,0.949,4.8,0.949
			c1.794,0,3.402-0.316,4.827-0.949c1.424-0.634,2.637-1.485,3.64-2.559c1.002-1.072,1.767-2.329,2.295-3.771
			C490.986,35.76,491.25,34.213,491.25,32.559z"/>
		<path fill="#FFFFFF" d="M517.44,41.395c-0.651,0.896-1.398,1.645-2.242,2.242s-1.759,1.055-2.743,1.371s-2.004,0.475-3.06,0.475
			c-1.688,0-3.095-0.299-4.22-0.896c-1.126-0.598-2.022-1.389-2.69-2.374c-0.668-0.984-1.143-2.092-1.424-3.323
			c-0.282-1.23-0.422-2.479-0.422-3.745V20.48h1.16v14.559c0,1.021,0.105,2.084,0.316,3.191s0.606,2.119,1.187,3.033
			c0.581,0.915,1.354,1.68,2.321,2.295c0.967,0.615,2.224,0.923,3.771,0.923c1.337,0,2.594-0.272,3.772-0.817
			c1.178-0.545,2.197-1.327,3.06-2.348c0.861-1.02,1.547-2.26,2.057-3.719s0.765-3.121,0.765-4.985V20.48h1.161v18.146
			c0,0.388,0.008,0.862,0.026,1.425c0.018,0.562,0.034,1.134,0.053,1.714c0.018,0.58,0.044,1.134,0.079,1.662
			c0.034,0.527,0.07,0.967,0.105,1.318h-1.16c-0.036-0.352-0.062-0.791-0.079-1.318c-0.019-0.528-0.036-1.099-0.054-1.715
			c-0.018-0.615-0.035-1.213-0.053-1.794c-0.018-0.58-0.026-1.099-0.026-1.556h-0.105C518.609,39.488,518.091,40.499,517.44,41.395z
			"/>
		<path fill="#FFFFFF" d="M535.981,21.403c1.547-1.108,3.218-1.662,5.012-1.662c0.176,0,0.334,0,0.475,0
			c0.14,0,0.299,0.018,0.475,0.053v1.002c-0.141-0.035-0.272-0.053-0.396-0.053c-0.124,0-0.22,0-0.29,0
			c-1.548,0-2.867,0.343-3.956,1.028c-1.091,0.686-1.987,1.583-2.69,2.69c-0.704,1.108-1.223,2.339-1.557,3.692
			c-0.334,1.354-0.501,2.7-0.501,4.036v12.555h-1.16V26.598c0-0.386-0.01-0.861-0.026-1.424c-0.019-0.562-0.036-1.134-0.053-1.715
			c-0.019-0.58-0.045-1.134-0.079-1.662c-0.036-0.527-0.071-0.967-0.105-1.318h1.16c0.035,0.352,0.062,0.791,0.079,1.318
			c0.018,0.528,0.035,1.1,0.053,1.714c0.018,0.616,0.035,1.213,0.053,1.794c0.018,0.58,0.026,1.099,0.026,1.556h0.105
			C533.309,24.33,534.434,22.51,535.981,21.403z"/>
		<path fill="#FFFFFF" d="M564.309,23.75c-0.915-0.95-1.987-1.688-3.218-2.216c-1.231-0.527-2.515-0.791-3.851-0.791
			c-1.724,0-3.271,0.325-4.643,0.976c-1.371,0.651-2.541,1.521-3.508,2.611c-0.967,1.09-1.714,2.356-2.241,3.798
			c-0.528,1.442-0.792,2.954-0.792,4.537c0,1.583,0.264,3.095,0.792,4.537c0.527,1.442,1.274,2.699,2.241,3.771
			c0.967,1.073,2.137,1.925,3.508,2.559c1.372,0.633,2.919,0.949,4.643,0.949c1.336,0,2.646-0.229,3.93-0.686
			c1.283-0.457,2.4-1.143,3.35-2.058l0.792,0.738c-1.056,1.056-2.295,1.82-3.72,2.295c-1.424,0.475-2.875,0.712-4.352,0.712
			c-1.794,0-3.438-0.316-4.933-0.949s-2.795-1.512-3.903-2.638c-1.107-1.125-1.97-2.479-2.585-4.062
			c-0.615-1.583-0.923-3.306-0.923-5.17c0-1.863,0.308-3.587,0.923-5.169s1.478-2.945,2.585-4.088
			c1.108-1.142,2.408-2.039,3.903-2.69c1.495-0.65,3.139-0.976,4.933-0.976c1.547,0,3.015,0.282,4.404,0.844
			c1.39,0.563,2.576,1.354,3.562,2.374L564.309,23.75z"/>
		<path fill="#FFFFFF" d="M571.377,32.348c0,1.478,0.22,2.937,0.66,4.378c0.438,1.442,1.107,2.735,2.004,3.878
			c0.897,1.143,2.031,2.066,3.402,2.77c1.372,0.703,2.989,1.055,4.854,1.055c1.899,0,3.587-0.378,5.064-1.134
			c1.477-0.756,2.76-1.854,3.851-3.298l0.844,0.739c-1.196,1.548-2.594,2.726-4.193,3.534c-1.601,0.809-3.455,1.213-5.565,1.213
			c-1.794,0-3.429-0.325-4.906-0.976c-1.477-0.65-2.752-1.557-3.824-2.717c-1.073-1.16-1.898-2.549-2.479-4.167
			c-0.58-1.617-0.87-3.376-0.87-5.275c0-1.828,0.299-3.516,0.898-5.064c0.6-1.547,1.419-2.883,2.459-4.009
			c1.04-1.125,2.265-1.995,3.675-2.611c1.409-0.615,2.926-0.923,4.547-0.923c1.903,0,3.56,0.334,4.97,1.002
			c1.409,0.668,2.582,1.548,3.517,2.637c0.934,1.091,1.63,2.33,2.088,3.719c0.459,1.39,0.688,2.805,0.688,4.246v1.002H571.377z
			 M591.897,31.346c-0.035-1.583-0.309-3.024-0.817-4.325c-0.511-1.301-1.205-2.417-2.084-3.35c-0.88-0.932-1.935-1.653-3.165-2.163
			c-1.231-0.509-2.603-0.765-4.114-0.765c-1.829,0-3.395,0.378-4.695,1.134c-1.301,0.757-2.365,1.688-3.191,2.796
			s-1.434,2.269-1.819,3.481c-0.388,1.213-0.581,2.277-0.581,3.191H591.897z"/>
	</g>
</g>
</svg>
