<?xml version="1.0" encoding="utf-8"?>
<!-- Generator: Adobe Illustrator 16.0.0, SVG Export Plug-In . SVG Version: 6.00 Build 0)  -->
<!DOCTYPE svg PUBLIC "-//W3C//DTD SVG 1.1//EN" "http://www.w3.org/Graphics/SVG/1.1/DTD/svg11.dtd">
<svg version="1.1" id="C_1_" xmlns="http://www.w3.org/2000/svg" xmlns:xlink="http://www.w3.org/1999/xlink" x="0px" y="0px"
	 width="307.2px" height="192px" viewBox="0 0 307.2 192" enable-background="new 0 0 307.2 192" xml:space="preserve">
<path fill-rule="evenodd" clip-rule="evenodd" fill="#F1F1F1" d="M363.051-37.192c3.425-4.213,10.469-0.801,7.562,5.401
	c-11.892,14.743-60.684,54.519-92.897,125.304c-36.294,100.216,37.976,21.083,38.888,33.486
	c-26.599,36.206-66.301,36.839-58.331-4.32c7.031-28.774,27.46-64.174,24.845-65.893c-5.807-3.916-17.438,18.901-33.486,28.085
	c-20.282,11.755-11.595-4.196-21.604,0c-23.744,25.807-73.632,79.683-75.614,82.095c-2.792,4.391,1.598,5.561-2.161,9.722
	c-5.759,4.175-18.975-1.189-11.882-8.642c11.666-17.499,109.715-121.17,115.581-127.464c9.59-4.659,14.904,5.908,11.883,8.642
	c-3.701,4.769-14.718,14.718-10.802,17.283c7.722-2.572,50.77-51.444,57.25-54.01C315.792,9.661,352.743-27.492,363.051-37.192z"/>
<path fill-rule="evenodd" clip-rule="evenodd" fill="#F1F1F1" d="M180.001-25.31c5.236,10.385-34.627,35.668-41.048,35.646
	c-16.594-8.505,7.021-11.882,0-17.283C127.342-4.787-46.15,103.229-33.879,150.763c23.307,45.356,155.596-26.734,153.389-12.962
	c-69.865,40.385-133.027,59.374-160.766,29.188c-25.039-49.36,19.337-82.241,89.473-137.209
	C117.002-21.137,162.254-49.286,180.001-25.31z"/>
</svg>
