<?xml version="1.0" encoding="utf-8"?>
<!-- Generator: Adobe Illustrator 16.0.0, SVG Export Plug-In . SVG Version: 6.00 Build 0)  -->
<!DOCTYPE svg PUBLIC "-//W3C//DTD SVG 1.1//EN" "http://www.w3.org/Graphics/SVG/1.1/DTD/svg11.dtd">
<svg version="1.1" id="Layer_1" xmlns="http://www.w3.org/2000/svg" xmlns:xlink="http://www.w3.org/1999/xlink" x="0px" y="0px"
	 width="100px" height="100px" viewBox="-21.654 -21.654 100 100" enable-background="new -21.654 -21.654 100 100"
	 xml:space="preserve">
<path fill="#A54D9D" d="M43.075,18.974H32.944v-6.642c0-2.496,1.656-3.075,2.818-3.075c1.163,0,7.148,0,7.148,0V-1.709l-9.848-0.04
	c-10.922,0-13.407,8.182-13.407,13.415v7.308h-6.318v11.305h6.318c0,14.499,0,31.972,0,31.972h13.288c0,0,0-17.65,0-31.972h8.974
	L43.075,18.974z"/>
<path fill="#A54D9D" d="M28.346-21.654c-27.61,0-50,22.39-50,50c0,27.609,22.39,50,50,50c27.62,0,50-22.391,50-50
	C78.346,0.737,55.967-21.654,28.346-21.654z M28.346,73.677c-24.85,0-45-20.141-45-45c0-24.851,20.15-45,45-45
	c24.86,0,45,20.15,45,45C73.346,53.536,53.207,73.677,28.346,73.677z"/>
</svg>
