<?xml version="1.0" encoding="utf-8"?>
<!-- Generator: Adobe Illustrator 16.0.0, SVG Export Plug-In . SVG Version: 6.00 Build 0)  -->
<!DOCTYPE svg PUBLIC "-//W3C//DTD SVG 1.1//EN" "http://www.w3.org/Graphics/SVG/1.1/DTD/svg11.dtd">
<svg version="1.1" id="Layer_1" xmlns="http://www.w3.org/2000/svg" xmlns:xlink="http://www.w3.org/1999/xlink" x="0px" y="0px"
	 width="113.76px" height="19.68px" viewBox="0 0 113.76 19.68" enable-background="new 0 0 113.76 19.68" xml:space="preserve">
<g id="Spread">
	<g enable-background="new    ">
		<path fill="#4299D4" d="M0.646,11.832c0.902,0.457,2.287,0.915,3.716,0.915c1.539,0,2.353-0.632,2.353-1.59
			c0-0.915-0.704-1.437-2.485-2.068C1.768,8.24,0.163,6.89,0.163,4.756c0-2.504,2.111-4.398,5.607-4.398
			c1.671,0,2.902,0.327,3.782,0.718L8.804,3.754C8.21,3.471,7.154,3.058,5.703,3.058S3.548,3.711,3.548,4.473
			c0,0.937,0.836,1.35,2.749,2.068c2.617,0.958,3.848,2.308,3.848,4.377c0,2.461-1.913,4.572-5.981,4.572
			c-1.693,0-3.364-0.457-4.2-0.914L0.646,11.832z"/>
		<path fill="#4299D4" d="M12.302,8.175c0-1.394-0.044-2.591-0.088-3.571h2.902l0.154,1.48h0.044c0.792-1.132,2.023-1.72,3.584-1.72
			c2.353,0,4.464,2.025,4.464,5.422c0,3.876-2.485,5.705-4.881,5.705c-1.297,0-2.309-0.522-2.792-1.219h-0.044v5.291h-3.342V8.175z
			 M15.645,10.678c0,0.262,0.022,0.502,0.066,0.697c0.22,0.893,0.989,1.568,1.957,1.568c1.451,0,2.309-1.198,2.309-3.005
			c0-1.698-0.77-2.983-2.265-2.983c-0.946,0-1.781,0.697-2.001,1.677c-0.044,0.174-0.066,0.392-0.066,0.588V10.678z"/>
		<path fill="#4299D4" d="M25.454,8.109c0-1.568-0.044-2.591-0.088-3.505h2.88l0.11,1.959h0.088c0.55-1.546,1.869-2.199,2.902-2.199
			c0.308,0,0.462,0,0.704,0.043v3.136c-0.242-0.065-0.527-0.109-0.901-0.109c-1.231,0-2.067,0.653-2.287,1.677
			c-0.044,0.217-0.066,0.479-0.066,0.74v5.4h-3.342V8.109z"/>
		<path fill="#4299D4" d="M36.208,10.984c0.11,1.372,1.473,2.024,3.034,2.024c1.143,0,2.067-0.152,2.968-0.436l0.44,2.243
			c-1.1,0.436-2.441,0.675-3.892,0.675c-3.65,0-5.739-2.111-5.739-5.443c0-2.7,1.693-5.683,5.431-5.683
			c3.474,0,4.793,2.678,4.793,5.313c0,0.566-0.066,1.067-0.11,1.307H36.208z M40.143,8.719c0-0.806-0.352-2.156-1.891-2.156
			c-1.407,0-1.979,1.263-2.066,2.156H40.143z"/>
		<path fill="#4299D4" d="M54.218,12.66c0,1.023,0.044,2.003,0.154,2.591H51.36l-0.198-1.067h-0.066
			c-0.704,0.85-1.803,1.307-3.078,1.307c-2.177,0-3.474-1.567-3.474-3.266c0-2.766,2.506-4.094,6.311-4.072V8
			c0-0.566-0.308-1.372-1.957-1.372c-1.099,0-2.265,0.37-2.968,0.806l-0.616-2.134c0.748-0.414,2.221-0.937,4.178-0.937
			c3.584,0,4.728,2.09,4.728,4.594V12.66z M50.964,10.221c-1.759-0.022-3.122,0.392-3.122,1.677c0,0.849,0.571,1.262,1.319,1.262
			c0.836,0,1.518-0.544,1.737-1.219c0.044-0.174,0.066-0.37,0.066-0.566V10.221z"/>
		<path fill="#4299D4" d="M67.281-0.209v12.281c0,1.197,0.044,2.46,0.088,3.179h-2.968l-0.154-1.567h-0.045
			c-0.682,1.197-1.979,1.807-3.363,1.807c-2.551,0-4.596-2.155-4.596-5.465c-0.022-3.593,2.242-5.662,4.815-5.662
			c1.319,0,2.353,0.458,2.837,1.198h0.043v-5.771H67.281z M63.938,9.111c0-0.174-0.021-0.414-0.043-0.588
			C63.697,7.63,62.972,6.89,61.938,6.89c-1.518,0-2.309,1.35-2.309,3.027c0,1.807,0.9,2.939,2.286,2.939
			c0.968,0,1.737-0.652,1.935-1.59c0.066-0.238,0.088-0.479,0.088-0.762V9.111z"/>
	</g>
</g>
<g id="Labs">
	<g enable-background="new    ">
		<path fill="#A54D9D" d="M70.361,0.575h3.364v11.889h5.893v2.787h-9.257V0.575z"/>
		<path fill="#A54D9D" d="M90.548,12.66c0,1.023,0.045,2.003,0.154,2.591H87.69l-0.199-1.067h-0.065
			c-0.704,0.85-1.803,1.307-3.078,1.307c-2.177,0-3.474-1.567-3.474-3.266c0-2.766,2.506-4.094,6.311-4.072V8
			c0-0.566-0.309-1.372-1.957-1.372c-1.1,0-2.266,0.37-2.969,0.806l-0.615-2.134c0.747-0.414,2.221-0.937,4.178-0.937
			c3.584,0,4.727,2.09,4.727,4.594V12.66z M87.294,10.221c-1.759-0.022-3.122,0.392-3.122,1.677c0,0.849,0.571,1.262,1.319,1.262
			c0.836,0,1.518-0.544,1.736-1.219c0.045-0.174,0.066-0.37,0.066-0.566V10.221z"/>
		<path fill="#A54D9D" d="M93.189-0.209h3.343v6.075h0.043c0.639-0.915,1.76-1.502,3.254-1.502c2.573,0,4.465,2.112,4.442,5.378
			c0,3.832-2.463,5.748-4.925,5.748c-1.254,0-2.463-0.457-3.232-1.72h-0.045l-0.131,1.48h-2.837
			c0.044-0.696,0.088-1.981,0.088-3.179V-0.209z M96.532,10.722c0,0.218,0.021,0.414,0.065,0.589
			c0.22,0.893,0.989,1.566,1.957,1.566c1.429,0,2.309-1.088,2.309-3.004c0-1.655-0.747-2.961-2.309-2.961
			c-0.901,0-1.737,0.675-1.957,1.633c-0.044,0.196-0.065,0.392-0.065,0.61V10.722z"/>
		<path fill="#A54D9D" d="M106.319,12.356c0.615,0.369,1.891,0.805,2.88,0.805c1.011,0,1.429-0.348,1.429-0.893
			c0-0.544-0.329-0.805-1.582-1.219c-2.221-0.741-3.079-1.938-3.057-3.179c0-2.003,1.715-3.506,4.375-3.506
			c1.254,0,2.375,0.283,3.035,0.61l-0.594,2.286c-0.484-0.261-1.408-0.61-2.331-0.61c-0.813,0-1.275,0.327-1.275,0.871
			c0,0.501,0.418,0.762,1.737,1.219c2.045,0.697,2.902,1.721,2.924,3.288c0,1.981-1.583,3.462-4.661,3.462
			c-1.407,0-2.661-0.326-3.474-0.762L106.319,12.356z"/>
	</g>
</g>
</svg>
