<?xml version="1.0" encoding="utf-8"?>
<!-- Generator: Adobe Illustrator 16.0.0, SVG Export Plug-In . SVG Version: 6.00 Build 0)  -->
<!DOCTYPE svg PUBLIC "-//W3C//DTD SVG 1.1//EN" "http://www.w3.org/Graphics/SVG/1.1/DTD/svg11.dtd">
<svg version="1.1" id="Layer_1" xmlns="http://www.w3.org/2000/svg" xmlns:xlink="http://www.w3.org/1999/xlink" x="0px" y="0px"
	 width="100px" height="100px" viewBox="-21.654 -21.654 100 100" enable-background="new -21.654 -21.654 100 100"
	 xml:space="preserve">
<path fill="#A54D9D" d="M57.737,12.024c-2.168,0.967-4.506,1.616-6.956,1.909c2.501-1.499,4.421-3.873,5.325-6.705
	c-2.342,1.39-4.934,2.397-7.695,2.941c-2.209-2.354-5.357-3.827-8.846-3.827c-6.688,0-12.115,5.428-12.115,12.119
	c0,0.95,0.104,1.873,0.312,2.762C17.691,20.716,8.761,15.891,2.783,8.561c-1.042,1.789-1.639,3.871-1.639,6.093
	c0,4.204,2.14,7.913,5.39,10.085c-1.983-0.064-3.854-0.609-5.487-1.517c-0.001,0.05-0.001,0.104-0.001,0.155
	c0,5.872,4.176,10.766,9.721,11.882c-1.015,0.276-2.088,0.424-3.192,0.424c-0.783,0-1.542-0.078-2.282-0.22
	c1.542,4.815,6.018,8.322,11.319,8.418c-4.147,3.249-9.368,5.185-15.049,5.185c-0.976,0-1.943-0.057-2.89-0.167
	c5.364,3.438,11.735,5.443,18.577,5.443c22.291,0,34.479-18.465,34.479-34.477c0-0.524-0.01-1.05-0.036-1.57
	C54.063,16.59,56.113,14.454,57.737,12.024z"/>
<path fill="#A54D9D" d="M28.346-21.654c-27.61,0-50,22.39-50,50c0,27.609,22.39,50,50,50c27.62,0,50-22.391,50-50
	C78.346,0.737,55.967-21.654,28.346-21.654z M28.346,73.677c-24.85,0-45-20.141-45-45c0-24.851,20.15-45,45-45
	c24.86,0,45,20.15,45,45C73.346,53.536,53.207,73.677,28.346,73.677z"/>
</svg>
